<svg width="151" height="49" viewBox="0 0 151 49" fill="none" xmlns="http://www.w3.org/2000/svg">
<path fill-rule="evenodd" clip-rule="evenodd" d="M6.00034 3C6.00034 1.34315 4.65719 0 3.00034 0C1.34348 0 0.00033568 1.34315 0.00033568 3V20.0488C0.00033568 29.3169 7.29543 37 16.5003 37C25.7052 37 33.0003 29.3169 33.0003 20.0488V3C33.0003 1.34315 31.6572 0 30.0003 0C28.3435 0 27.0003 1.34315 27.0003 3V20.0488C27.0003 26.1907 22.2071 31 16.5003 31C10.7936 31 6.00034 26.1907 6.00034 20.0488V3ZM31.6372 44.492C33.0257 43.588 33.4185 41.7296 32.5145 40.3411C31.6105 38.9526 29.7521 38.5598 28.3635 39.4638C24.915 41.7089 20.853 42.9999 16.5003 42.9999C12.1477 42.9999 8.08565 41.7089 4.63716 39.4638C3.24864 38.5598 1.3902 38.9526 0.486217 40.3411C-0.417767 41.7296 -0.0249757 43.588 1.36354 44.492C5.74521 47.3447 10.9376 48.9999 16.5003 48.9999C22.0631 48.9999 27.2555 47.3447 31.6372 44.492Z" fill="#F54A24"/>
<path d="M47.45 36.35C44.6833 36.35 42.6 35.5666 41.2 34C39.8 32.4 39.1 30.0666 39.1 27V3.34995C39.1 2.31662 39.3666 1.53329 39.9 0.999953C40.4333 0.466619 41.2 0.199951 42.2 0.199951C43.2 0.199951 43.9666 0.466619 44.5 0.999953C45.0666 1.53329 45.35 2.31662 45.35 3.34995V26.7C45.35 28.2333 45.6666 29.3666 46.3 30.1C46.9666 30.8333 47.9 31.2 49.1 31.2C49.3666 31.2 49.6166 31.2 49.85 31.2C50.0833 31.1666 50.3166 31.1333 50.55 31.1C51.0166 31.0333 51.3333 31.1666 51.5 31.5C51.6666 31.8 51.75 32.4333 51.75 33.4C51.75 34.2333 51.5833 34.8833 51.25 35.35C50.9166 35.8166 50.3666 36.1 49.6 36.2C49.2666 36.2333 48.9166 36.2666 48.55 36.3C48.1833 36.3333 47.8166 36.35 47.45 36.35Z" fill="#171725"/>
<path d="M66.8726 36.35C64.106 36.35 61.7226 35.8333 59.7226 34.8C57.7226 33.7666 56.1726 32.3 55.0726 30.4C54.006 28.5 53.4726 26.25 53.4726 23.65C53.4726 21.1166 53.9893 18.9 55.0226 17C56.0893 15.1 57.5393 13.6166 59.3726 12.55C61.2393 11.45 63.356 10.9 65.7226 10.9C67.456 10.9 69.006 11.1833 70.3726 11.75C71.7726 12.3166 72.956 13.1333 73.9226 14.2C74.9226 15.2666 75.6726 16.5666 76.1726 18.1C76.706 19.6 76.9726 21.3 76.9726 23.2C76.9726 23.8 76.756 24.2666 76.3226 24.6C75.9226 24.9 75.3393 25.05 74.5726 25.05H58.5226V21.45H72.5726L71.7726 22.2C71.7726 20.6666 71.5393 19.3833 71.0726 18.35C70.6393 17.3166 69.9893 16.5333 69.1226 16C68.2893 15.4333 67.2393 15.15 65.9726 15.15C64.5726 15.15 63.3726 15.4833 62.3726 16.15C61.406 16.7833 60.656 17.7 60.1226 18.9C59.6226 20.0666 59.3726 21.4666 59.3726 23.1V23.45C59.3726 26.1833 60.006 28.2333 61.2726 29.6C62.5726 30.9333 64.4726 31.6 66.9726 31.6C67.8393 31.6 68.806 31.5 69.8726 31.3C70.9726 31.0666 72.006 30.6833 72.9726 30.15C73.6726 29.75 74.2893 29.5833 74.8226 29.65C75.356 29.6833 75.7726 29.8666 76.0726 30.2C76.406 30.5333 76.606 30.95 76.6726 31.45C76.7393 31.9166 76.6393 32.4 76.3726 32.9C76.1393 33.4 75.7226 33.8333 75.1226 34.2C73.956 34.9333 72.606 35.4833 71.0726 35.85C69.5726 36.1833 68.1726 36.35 66.8726 36.35Z" fill="#171725"/>
<path d="M89.9722 36.35C88.2056 36.35 86.6222 36.0166 85.2222 35.35C83.8556 34.65 82.7722 33.7166 81.9722 32.55C81.2056 31.3833 80.8222 30.0666 80.8222 28.6C80.8222 26.8 81.2889 25.3833 82.2222 24.35C83.1556 23.2833 84.6722 22.5166 86.7722 22.05C88.8722 21.5833 91.6889 21.35 95.2222 21.35H97.7222V24.95H95.2722C93.2056 24.95 91.5556 25.05 90.3222 25.25C89.0889 25.45 88.2056 25.8 87.6722 26.3C87.1722 26.7666 86.9222 27.4333 86.9222 28.3C86.9222 29.4 87.3056 30.3 88.0722 31C88.8389 31.7 89.9056 32.05 91.2722 32.05C92.3722 32.05 93.3389 31.8 94.1722 31.3C95.0389 30.7666 95.7222 30.05 96.2222 29.15C96.7222 28.25 96.9722 27.2166 96.9722 26.05V20.3C96.9722 18.6333 96.6056 17.4333 95.8722 16.7C95.1389 15.9666 93.9056 15.6 92.1722 15.6C91.2056 15.6 90.1556 15.7166 89.0222 15.95C87.9222 16.1833 86.7556 16.5833 85.5222 17.15C84.8889 17.45 84.3222 17.5333 83.8222 17.4C83.3556 17.2666 82.9889 17 82.7222 16.6C82.4556 16.1666 82.3222 15.7 82.3222 15.2C82.3222 14.7 82.4556 14.2166 82.7222 13.75C82.9889 13.25 83.4389 12.8833 84.0722 12.65C85.6056 12.0166 87.0722 11.5666 88.4722 11.3C89.9056 11.0333 91.2056 10.9 92.3722 10.9C94.7722 10.9 96.7389 11.2666 98.2722 12C99.8389 12.7333 101.006 13.85 101.772 15.35C102.539 16.8166 102.922 18.7166 102.922 21.05V33.05C102.922 34.0833 102.672 34.8833 102.172 35.45C101.672 35.9833 100.956 36.25 100.022 36.25C99.0889 36.25 98.3556 35.9833 97.8222 35.45C97.3222 34.8833 97.0722 34.0833 97.0722 33.05V30.65H97.4722C97.2389 31.8166 96.7722 32.8333 96.0722 33.7C95.4056 34.5333 94.5556 35.1833 93.5222 35.65C92.4889 36.1166 91.3056 36.35 89.9722 36.35Z" fill="#171725"/>
<path d="M111.466 36.25C110.433 36.25 109.633 35.9833 109.066 35.45C108.533 34.8833 108.266 34.0833 108.266 33.05V14.15C108.266 13.1166 108.533 12.3333 109.066 11.8C109.599 11.2666 110.349 11 111.316 11C112.283 11 113.033 11.2666 113.566 11.8C114.099 12.3333 114.366 13.1166 114.366 14.15V17.3H113.866C114.333 15.3 115.249 13.7833 116.616 12.75C117.983 11.7166 119.799 11.1 122.066 10.9C122.766 10.8333 123.316 11.0166 123.716 11.45C124.149 11.85 124.399 12.4833 124.466 13.35C124.533 14.1833 124.333 14.8666 123.866 15.4C123.433 15.9 122.766 16.2 121.866 16.3L120.766 16.4C118.733 16.6 117.199 17.2333 116.166 18.3C115.133 19.3333 114.616 20.8 114.616 22.7V33.05C114.616 34.0833 114.349 34.8833 113.816 35.45C113.283 35.9833 112.499 36.25 111.466 36.25Z" fill="#171725"/>
<path d="M130.946 36.25C129.946 36.25 129.179 35.9833 128.646 35.45C128.113 34.8833 127.846 34.0833 127.846 33.05V14.15C127.846 13.1166 128.113 12.3333 128.646 11.8C129.179 11.2666 129.929 11 130.896 11C131.863 11 132.613 11.2666 133.146 11.8C133.679 12.3333 133.946 13.1166 133.946 14.15V17.55L133.396 16.3C134.129 14.5333 135.263 13.2 136.796 12.3C138.363 11.3666 140.129 10.9 142.096 10.9C144.063 10.9 145.679 11.2666 146.946 12C148.213 12.7333 149.163 13.85 149.796 15.35C150.429 16.8166 150.746 18.6833 150.746 20.95V33.05C150.746 34.0833 150.479 34.8833 149.946 35.45C149.413 35.9833 148.646 36.25 147.646 36.25C146.646 36.25 145.863 35.9833 145.296 35.45C144.763 34.8833 144.496 34.0833 144.496 33.05V21.25C144.496 19.35 144.129 17.9666 143.396 17.1C142.696 16.2333 141.596 15.8 140.096 15.8C138.263 15.8 136.796 16.3833 135.696 17.55C134.629 18.6833 134.096 20.2 134.096 22.1V33.05C134.096 35.1833 133.046 36.25 130.946 36.25Z" fill="#171725"/>
</svg>
