<svg width="16" height="20" viewBox="0 0 16 20" fill="none" xmlns="http://www.w3.org/2000/svg">
<path fill-rule="evenodd" clip-rule="evenodd" d="M2.90937 1.22449C2.90937 0.548223 2.25816 0 1.45485 0C0.651544 0 0.000335685 0.548223 0.000335685 1.22449V8.18319C0.000335685 11.9661 3.53728 15.1021 8.00017 15.1021C12.4631 15.1021 16 11.9661 16 8.18319V1.22449C16 0.548223 15.3488 0 14.5455 0C13.7422 0 13.091 0.548223 13.091 1.22449V8.18319C13.091 10.6901 10.767 12.6531 8.00017 12.6531C5.2333 12.6531 2.90937 10.6901 2.90937 8.18319V1.22449ZM15.3389 18.1601C16.0121 17.7911 16.2025 17.0326 15.7643 16.4658C15.326 15.8991 14.4249 15.7388 13.7517 16.1077C12.0798 17.0241 10.1103 17.5511 8 17.5511C5.88968 17.5511 3.92023 17.0241 2.24827 16.1077C1.57507 15.7388 0.674023 15.8991 0.235737 16.4658C-0.202549 17.0326 -0.0121092 17.7911 0.661097 18.1601C2.7855 19.3244 5.30297 20.0001 8 20.0001C10.697 20.0001 13.2145 19.3244 15.3389 18.1601Z" fill="#F54A24"/>
</svg>
