<svg width="252" height="50" viewBox="0 0 252 50" fill="none" xmlns="http://www.w3.org/2000/svg">
<path d="M81.981 20.6481C81.241 19.2165 80.1035 18.0289 78.705 17.2281C77.4343 16.5385 76.0107 16.1795 74.565 16.1841C73.039 16.1684 71.5381 16.5732 70.227 17.3541C68.9185 18.1324 67.8468 19.2525 67.127 20.5941C66.3482 22.0741 65.9593 23.7281 65.997 25.4001C65.9594 27.0699 66.3417 28.7225 67.109 30.2061C67.8111 31.5415 68.8624 32.6613 70.151 33.4461C71.4472 34.2293 72.9366 34.6346 74.451 34.6161C75.5338 34.6244 76.6084 34.429 77.619 34.0401C78.5755 33.6736 79.4547 33.1309 80.211 32.4401C80.945 31.7725 81.5457 30.9717 81.981 30.0801V27.5601H74.745V24.0681H86.265V30.3321C85.6811 31.8326 84.8063 33.2028 83.691 34.3641C82.5378 35.5734 81.1547 36.5403 79.623 37.2081C77.9824 37.9179 76.2105 38.2737 74.423 38.2521C72.7155 38.2654 71.0215 37.9475 69.435 37.3161C67.9173 36.7118 66.5346 35.8125 65.367 34.6701C64.1905 33.5113 63.2599 32.127 62.631 30.6001C61.9561 28.9505 61.6195 27.1822 61.641 25.4001C61.6214 23.6291 61.9581 21.8723 62.631 20.2341C63.2629 18.704 64.1929 17.3151 65.367 16.1481C66.5306 14.9963 67.9141 14.0903 69.435 13.4841C71.0209 12.8529 72.7141 12.535 74.421 12.5481C76.0015 12.5435 77.5714 12.8052 79.065 13.3221C80.5309 13.8242 81.8883 14.5999 83.065 15.6081C84.2416 16.6169 85.1661 17.8866 85.765 19.3161L81.981 20.6481ZM89.581 12.0801H93.649V38.0001H89.577L89.581 12.0801ZM105.709 38.2521C104.088 38.2795 102.487 37.889 101.061 37.1181C99.7109 36.3784 98.6006 35.2681 97.861 33.9181C97.0631 32.4171 96.6663 30.7355 96.709 29.0361C96.6637 27.3154 97.072 25.613 97.893 24.1001C98.6563 22.7363 99.7927 21.6186 101.169 20.8781C102.595 20.1154 104.192 19.7266 105.809 19.7481C107.434 19.7228 109.039 20.1132 110.471 20.8821C111.841 21.6276 112.98 22.7344 113.765 24.0821C114.608 25.5669 115.031 27.2531 114.989 28.9601C115.035 30.6889 114.607 32.3974 113.751 33.9001C112.953 35.261 111.794 36.3747 110.403 37.1181C108.958 37.8837 107.344 38.2737 105.709 38.2521ZM105.669 34.6161C106.506 34.6157 107.33 34.4038 108.063 34.0001C108.842 33.5696 109.485 32.9285 109.917 32.1501C110.433 31.17 110.682 30.0709 110.637 28.9641C110.675 27.885 110.44 26.8138 109.953 25.8501C109.544 25.0726 108.919 24.43 108.153 24.0001C107.414 23.5934 106.584 23.3827 105.741 23.3881C104.926 23.3814 104.125 23.5927 103.419 24.0001C102.682 24.4384 102.088 25.081 101.709 25.8501C101.241 26.8449 101.019 27.9375 101.061 29.0361C101.024 30.1091 101.24 31.1758 101.691 32.1501C102.057 32.9166 102.639 33.5595 103.365 34.0001C104.063 34.4101 104.859 34.623 105.669 34.6161ZM121.689 22.6641C122.331 21.7915 123.17 21.0823 124.137 20.5941C125.296 20.0061 126.582 19.7154 127.881 19.7481C129.355 19.7175 130.807 20.1179 132.057 20.9001C133.282 21.6963 134.261 22.8183 134.883 24.1401C135.595 25.6594 135.946 27.3227 135.909 29.0001C135.946 30.6775 135.595 32.3407 134.883 33.8601C134.258 35.1855 133.272 36.3083 132.039 37.1001C130.793 37.8777 129.349 38.2778 127.881 38.2521C126.677 38.287 125.481 38.0405 124.389 37.5321C123.499 37.1056 122.704 36.5059 122.049 35.7681L121.761 38.0001H118.089V12.0801H122.157V22.7721L121.689 22.6641ZM131.553 29.0001C131.619 27.5411 131.152 26.108 130.239 24.9681C129.833 24.4708 129.318 24.0729 128.735 23.8046C128.152 23.5364 127.515 23.4048 126.873 23.4201C126.042 23.411 125.225 23.6356 124.515 24.0681C123.781 24.5281 123.19 25.1822 122.805 25.9581C122.347 26.9049 122.124 27.9486 122.157 29.0001C122.125 30.0519 122.349 31.0956 122.809 32.0421C123.194 32.8179 123.785 33.4721 124.519 33.9321C125.229 34.3646 126.046 34.5891 126.877 34.5801C127.518 34.5947 128.154 34.4629 128.737 34.1946C129.319 33.9264 129.833 33.5288 130.239 33.0321C131.152 31.8921 131.619 30.459 131.553 29.0001ZM149.517 38.0001L149.157 35.8001C148.619 36.5383 147.918 37.1431 147.109 37.5681C146.114 38.0183 145.028 38.2279 143.937 38.1801C142.824 38.2071 141.719 37.9922 140.697 37.5501C139.84 37.1766 139.109 36.5641 138.591 35.7861C138.089 34.9962 137.833 34.0756 137.853 33.1401C137.839 32.4231 137.982 31.7118 138.271 31.0555C138.56 30.3993 138.989 29.8139 139.527 29.3401C140.924 28.2063 142.644 27.5446 144.441 27.4501L149.157 26.9501V25.5501C149.15 25.2502 149.079 24.9553 148.949 24.6852C148.818 24.415 148.632 24.176 148.401 23.9841C147.713 23.4577 146.852 23.208 145.989 23.2841C145.104 23.2626 144.234 23.5064 143.489 23.9841C142.763 24.4781 142.254 25.2319 142.067 26.0901L138.539 24.7901C138.955 23.2604 139.924 21.9393 141.257 21.0821C142.739 20.1589 144.462 19.6954 146.207 19.7501C147.162 19.6766 148.122 19.7948 149.031 20.0977C149.94 20.4006 150.779 20.8822 151.499 21.5141C152.084 22.1044 152.542 22.8081 152.846 23.5819C153.149 24.3557 153.291 25.1834 153.263 26.0141V38.0001H149.517ZM149.157 30.0801L144.837 30.6201C144.092 30.6741 143.38 30.943 142.785 31.3941C142.566 31.576 142.392 31.8047 142.273 32.0633C142.155 32.3219 142.096 32.6037 142.101 32.8881C142.1 33.1595 142.16 33.4278 142.275 33.6736C142.39 33.9194 142.558 34.1368 142.767 34.3101C143.277 34.729 143.926 34.941 144.585 34.9041C145.45 34.9302 146.308 34.7448 147.085 34.3641C147.75 34.0228 148.292 33.4814 148.633 32.8161C149.003 32.0418 149.182 31.1899 149.155 30.3321L149.157 30.0801ZM157.041 12.0801H161.109V38.0001H157.041V12.0801ZM166.617 31.9521C166.811 32.6792 167.141 33.3632 167.589 33.9681C168.121 34.6832 168.819 35.2578 169.623 35.6421C170.702 36.1279 171.879 36.3559 173.061 36.3081C174.658 36.4383 176.244 35.9484 177.489 34.9401C177.955 34.51 178.324 33.986 178.572 33.4026C178.82 32.8193 178.942 32.1899 178.929 31.5561C178.965 30.6357 178.679 29.7316 178.119 29.0001C177.523 28.2858 176.77 27.7191 175.919 27.3441C174.912 26.8812 173.871 26.4961 172.805 26.1921C171.821 25.9254 170.867 25.6314 169.943 25.3101C169.065 25.0079 168.226 24.6031 167.443 24.1041C166.713 23.6388 166.107 23.0024 165.679 22.2501C165.22 21.3809 164.996 20.4065 165.031 19.4241C164.999 18.1495 165.336 16.8929 166.003 15.8061C166.676 14.7638 167.631 13.9337 168.757 13.4121C170.071 12.8092 171.505 12.5137 172.951 12.5481C174.204 12.5192 175.451 12.7331 176.623 13.1781C177.593 13.5561 178.467 14.1466 179.179 14.9061C179.83 15.602 180.321 16.4312 180.619 17.3361L178.711 18.0561C178.479 17.4377 178.131 16.8695 177.685 16.3821C177.143 15.7834 176.481 15.3062 175.741 14.9821C174.839 14.5902 173.862 14.3998 172.879 14.4241C171.903 14.413 170.935 14.603 170.035 14.9821C169.21 15.3235 168.495 15.8836 167.965 16.6021C167.439 17.342 167.167 18.2326 167.191 19.1401C167.141 20.0543 167.451 20.9518 168.055 21.6401C168.698 22.2958 169.479 22.8001 170.341 23.1161C171.289 23.4881 172.339 23.8421 173.491 24.1781C174.475 24.4901 175.429 24.8261 176.353 25.1861C177.225 25.5178 178.049 25.9659 178.801 26.5181C179.503 27.0391 180.081 27.7092 180.493 28.4801C180.938 29.3669 181.154 30.3506 181.123 31.3421C181.131 32.5348 180.84 33.7105 180.277 34.7621C179.681 35.8499 178.773 36.734 177.669 37.3001C176.247 37.9904 174.676 38.3182 173.097 38.2541C171.676 38.2883 170.262 38.0374 168.939 37.5161C167.857 37.0822 166.89 36.4046 166.113 35.5361C165.408 34.7357 164.902 33.7796 164.637 32.7461L166.617 31.9521ZM186.381 20.0001V14.9601H188.433V20.0001H193.473V21.9081H188.433V32.5281C188.377 33.4063 188.639 34.2753 189.171 34.9761C189.656 35.549 190.323 35.9374 191.061 36.0761C191.857 36.2323 192.675 36.2384 193.473 36.0941V37.8561C192.633 38.0704 191.761 38.1314 190.899 38.0361C190.079 37.9504 189.291 37.6729 188.599 37.2261C187.908 36.774 187.349 36.1467 186.979 35.4081C186.555 34.509 186.351 33.5217 186.385 32.5281V21.9081H183.577V20.0001H186.381ZM211.473 38.0001H209.565L209.457 34.8001C208.992 35.8601 208.213 36.7521 207.225 37.3561C206.108 37.9902 204.837 38.3017 203.553 38.2561C202.307 38.2796 201.075 37.9886 199.971 37.4101C198.907 36.8251 198.056 35.9175 197.541 34.8181C196.919 33.4335 196.624 31.9248 196.677 30.4081V20.0001H198.693V30.2241C198.569 31.8675 199.049 33.4996 200.043 34.8141C200.53 35.3358 201.126 35.7435 201.789 36.008C202.452 36.2725 203.165 36.3873 203.877 36.3441C204.632 36.3801 205.386 36.2506 206.085 35.9645C206.785 35.6784 207.414 35.2428 207.927 34.6881C209.031 33.2505 209.563 31.455 209.421 29.6481V20.0001H211.473V38.0001ZM230.625 24.1761L230.445 24.2481V12.0801H232.497V38.0001H230.589L230.445 34.0401C229.911 35.2526 229.044 36.2887 227.945 37.0281C226.663 37.8786 225.147 38.3066 223.609 38.2521C222.079 38.2864 220.569 37.8937 219.249 37.1181C217.989 36.3498 216.981 35.2299 216.349 33.8961C215.636 32.3646 215.285 30.6891 215.325 29.0001C215.284 27.3165 215.636 25.6466 216.351 24.1221C216.99 22.7928 217.996 21.6746 219.251 20.9001C220.566 20.114 222.076 19.7147 223.607 19.7481C225.205 19.6819 226.782 20.1299 228.107 21.0261C229.231 21.8134 230.104 22.9067 230.625 24.1761ZM217.521 29.0001C217.416 30.943 218.038 32.8555 219.267 34.3641C219.86 35.0241 220.593 35.5442 221.411 35.8866C222.23 36.229 223.115 36.3853 224.001 36.3441C225.174 36.3646 226.328 36.0526 227.331 35.4441C228.316 34.8296 229.108 33.95 229.617 32.9061C230.197 31.6875 230.481 30.3491 230.445 29.0001C230.481 27.651 230.197 26.3127 229.617 25.0941C229.108 24.0502 228.316 23.1706 227.331 22.5561C226.328 21.9476 225.174 21.6355 224.001 21.6561C223.115 21.6149 222.23 21.7712 221.411 22.1136C220.593 22.456 219.86 22.976 219.267 23.6361C218.038 25.1447 217.416 27.0571 217.521 29.0001ZM249.777 20.0001H251.901L241.785 45.2001H239.769L242.757 37.8201L235.341 20.0001H237.573L243.837 35.4081L249.777 20.0001Z" fill="#171725"/>
<path d="M0 30.6631V30.5391V1.91911C0 1.87311 0 1.82677 0 1.78011C0.0149058 1.53521 0.0779347 1.29566 0.185483 1.07514C0.293031 0.854616 0.44299 0.657456 0.626785 0.494929C0.81058 0.332401 1.02461 0.207694 1.25663 0.127936C1.48865 0.0481791 1.73412 0.0149358 1.979 0.0301073C6.22602 0.366187 10.3634 1.54586 14.149 3.50011C17.4378 5.43747 20.4207 7.85248 23 10.6661C25.5866 7.842 28.5791 5.41846 31.879 3.47511C35.6655 1.51866 39.8043 0.337274 44.053 0.000107325C44.5464 -0.0291702 45.0313 0.138399 45.4013 0.466074C45.7714 0.79375 45.9964 1.25479 46.027 1.74811C46.027 1.78477 46.027 1.82144 46.027 1.85811C46.027 1.87811 46.027 1.89811 46.027 1.91811V29.4331C46.027 29.6601 45.473 49.4141 23.535 49.9881L23.135 49.9961C23.095 49.9961 23.0543 49.9961 23.013 49.9961H22.938H22.604C1.554 50.0001 0.018 30.8601 0 30.6631ZM3.74 30.4631C3.84 31.6001 5.34 45.4231 21.14 46.2401V40.9911C21.14 40.9731 21.14 40.9551 21.14 40.9371V27.2371C21.14 27.2191 21.14 27.2011 21.14 27.1831V14.1691C18.61 11.2536 15.639 8.75226 12.335 6.75611C9.64519 5.35719 6.74052 4.41759 3.741 3.97611L3.74 30.4631ZM24.888 46.2001C38.158 45.2191 41.309 35.8001 42.056 31.5001C39.1378 31.9518 36.313 32.877 33.693 34.2391C30.3877 36.2331 27.4164 38.7343 24.888 41.6511V46.2001ZM24.888 36.2771C26.9882 34.2268 29.338 32.4489 31.882 30.9851C35.1301 29.2908 38.65 28.1789 42.282 27.7001V17.7071C39.2831 18.1495 36.3787 19.088 33.688 20.4841C30.3842 22.4797 27.4146 24.9823 24.888 27.9001V36.2771ZM24.888 22.5221C26.9882 20.4718 29.338 18.6939 31.882 17.2301C35.1301 15.5358 38.65 14.424 42.282 13.9451V3.98011C39.2831 4.42258 36.3788 5.36107 33.688 6.75711C30.3827 8.75111 27.4115 11.2523 24.883 14.1691L24.888 22.5221Z" fill="#F54A24"/>
</svg>
